<svg aria-hidden="true" style="position: absolute; width: 0; height: 0; overflow: hidden;" version="1.1" xmlns="http://www.w3.org/2000/svg" xmlns:xlink="http://www.w3.org/1999/xlink">
<defs>
<symbol id="g-tag" viewBox="0 0 7 10">
<path d="M16 0c-6.203 0-11.25 5.047-11.25 11.25 0 2.096 0.581 4.141 1.679 5.916l8.93 14.391c0.171 0.276 0.472 0.443 0.797 0.443 0.003 0 0.005 0 0.007 0 0.327-0.003 0.629-0.175 0.797-0.456l8.703-14.53c1.038-1.737 1.587-3.73 1.587-5.764 0-6.203-5.047-11.25-11.25-11.25zM24.054 16.051l-7.912 13.21-8.119-13.084c-0.915-1.477-1.41-3.181-1.41-4.928 0-5.169 4.218-9.387 9.387-9.387s9.381 4.218 9.381 9.387c0 1.695-0.463 3.355-1.327 4.801z"></path>
<path d="M16 5.625c-3.102 0-5.625 2.523-5.625 5.625 0 3.082 2.482 5.625 5.625 5.625 3.181 0 5.625-2.577 5.625-5.625 0-3.102-2.523-5.625-5.625-5.625zM16 15.012c-2.079 0-3.762-1.69-3.762-3.762 0-2.068 1.695-3.763 3.762-3.763s3.756 1.695 3.756 3.763c0 2.043-1.645 3.762-3.756 3.762z"></path>
</symbol>
<symbol id="geotag" viewBox="0 0 32 32">
<path d="M16.002 0c-6.003 0-10.87 4.835-10.87 10.799 0 3.051 2.993 8.517 2.993 8.517l7.477 12.684 7.801-12.536c0 0 3.465-5.215 3.465-8.665 0.001-5.964-4.866-10.799-10.866-10.799zM15.951 16.746c-3.438 0-6.223-2.785-6.223-6.227 0-3.437 2.784-6.22 6.223-6.22 3.436 0 6.224 2.783 6.224 6.22 0 3.442-2.788 6.227-6.224 6.227z"></path>
</symbol>
<symbol id="placeholder" viewBox="50 0 50 50">
<path  d="M16 0c-6.2 0-11.227 5.026-11.227 11.227s7.867 20.773 11.227 20.773c3.536 0 11.226-14.573 11.226-20.773s-5.026-11.227-11.226-11.227zM16 18.238c-3.873 0-7.012-3.139-7.012-7.011s3.139-7.011 7.012-7.011c3.873 0 7.012 3.139 7.012 7.011s-3.139 7.011-7.012 7.011z"></path>
</symbol>
<symbol id="polygon" viewBox="0 0 13 8">
<path d="M6.5 8L0.00480968 0.5L12.9952 0.499999L6.5 8Z"></path>
</symbol>
<symbol id="vector" viewBox="0 0 12 12" >
<path d="M1.50905 1.50905C2.48217 0.535922 3.77599 0 5.15217 0C6.52835 0 7.82217 0.535922 8.79527 1.50905C9.76838 2.48215 10.3043 3.77597 10.3043 5.15213C10.3043 6.41032 9.8561 7.59949 9.0356 8.53786L11.8969 11.3992C12.0344 11.5366 12.0344 11.7595 11.8969 11.8969C11.8282 11.9656 11.7381 12 11.6481 12C11.558 12 11.4679 11.9656 11.3992 11.8969L8.53791 9.03558C7.59954 9.85606 6.41037 10.3043 5.15217 10.3043C3.77597 10.3043 2.48219 9.76838 1.50907 8.79525C0.535968 7.82215 4.673e-05 6.52833 4.673e-05 5.15215C4.673e-05 3.77597 0.535945 2.48215 1.50905 1.50905ZM2.00677 8.29755C3.74116 10.0319 6.56316 10.0319 8.29755 8.29755C10.0319 6.56318 10.0319 3.74114 8.29755 2.00677C7.43027 1.13948 6.2914 0.705984 5.15215 0.705984C4.01318 0.705984 2.87384 1.1397 2.00674 2.00677C0.272413 3.74112 0.272413 6.56316 2.00677 8.29755Z"></path>
</symbol>
</defs>
</svg>
